<svg width="500" height="248" viewBox="0 0 500 248" fill="none" xmlns="http://www.w3.org/2000/svg">
<g clip-path="url(#clip0_23_1335)">
<path d="M137.525 160.664H115.977L109.421 144.808H73.6823L67.7074 160.664H46.6294L78.8273 80.6094H101.897L137.525 160.664ZM90.8047 99.6805L78.9656 130.865H103.557L90.8047 99.6805Z" fill="white"/>
<path d="M215.253 80.6094H232.597V160.664H212.681V110.768L191.133 135.882H188.09L166.542 110.657V160.553H146.625V80.6094H163.969L189.611 110.38L215.253 80.6094Z" fill="white"/>
<path d="M283.052 80.6094C312.207 80.6094 327.31 98.7935 327.31 120.747C327.31 143.755 312.788 160.664 280.922 160.664H247.783V80.6094H283.052ZM267.699 146H280.7C300.727 146 306.702 132.39 306.702 120.637C306.702 106.777 299.316 95.2731 280.479 95.2731H267.699V146Z" fill="white"/>
<path d="M407.998 99.5972H366.81L341.721 74.4277H433.115V166.041L407.998 140.872V99.5972Z" fill="white"/>
<path d="M366.783 140.899V104.642L340.947 130.532V166.817H377.128L402.964 140.899H366.783Z" fill="white"/>
</g>
<defs>
<clipPath id="clip0_23_1335">
<rect width="386.485" height="92.3619" fill="white" transform="translate(46.6294 74.4277)"/>
</clipPath>
</defs>
</svg>
