<svg width="40" height="40" viewBox="0 0 40 40" fill="none" xmlns="http://www.w3.org/2000/svg">
<path d="M5.5127 12.5435L20 19.7862L34.4872 12.5435C34.4336 11.6204 34.0291 10.7527 33.3565 10.1182C32.6839 9.48369 31.7941 9.13032 30.8695 9.13049H9.13043C8.20577 9.13032 7.31603 9.48369 6.64345 10.1182C5.97086 10.7527 5.56633 11.6204 5.5127 12.5435Z" fill="white"/>
<path d="M34.4932 16.5907L20.0005 23.837L5.50781 16.5907V27.2465C5.50781 28.2074 5.88954 29.1289 6.56902 29.8084C7.24849 30.4879 8.17006 30.8696 9.13099 30.8696H30.87C31.831 30.8696 32.7525 30.4879 33.432 29.8084C34.1115 29.1289 34.4932 28.2074 34.4932 27.2465V16.5907Z" fill="white"/>
</svg>
