<svg width="120" height="32" viewBox="0 0 120 32" fill="none" xmlns="http://www.w3.org/2000/svg">
<path d="M67.3242 17.2285H77.0176L62.4775 31.9961V22.1514H52.7842L67.3242 7.38379V17.2285ZM110.647 9.88281C116.251 9.88286 120 13.7073 120 19.2734C120 19.8413 119.962 20.485 119.849 21.2422H105.535C106.027 23.9685 108.035 25.6348 110.875 25.6348C112.957 25.6346 114.661 24.726 115.684 22.9844L119.129 25.7109C117.236 28.4369 114.358 29.8759 110.837 29.876C104.854 29.876 100.689 25.7486 100.688 19.8418C100.688 13.897 104.93 9.88281 110.647 9.88281ZM9.65527 16.3574L13.4424 10.4131H18.8564L12.5332 19.6523L19.2354 29.3457H13.5938L9.58008 23.0596L5.56641 29.3457H0L6.70215 19.6523L0.378906 10.4131H5.86914L9.65527 16.3574ZM42.9023 9.88281C47.0296 9.88281 49.832 12.7986 49.832 17.1152V29.3457H44.9092V18.5166C44.9092 15.8662 43.8494 14.4269 41.8428 14.4268C39.6466 14.4268 38.2451 16.1311 38.2451 18.8574V29.3457H33.3232V18.5166C33.3232 15.8661 32.2626 14.4268 30.2559 14.4268C28.0597 14.4268 26.6582 16.1311 26.6582 18.8574V29.3457H21.7363V10.4131H26.6582V12.5332C27.8699 10.7157 29.6877 9.88283 31.7324 9.88281C34.1179 9.88281 36.0494 11.0187 37.1475 12.874C38.5484 10.8675 40.5171 9.88291 42.9023 9.88281ZM90.4961 9.88281C94.6991 9.88281 97.5771 12.8743 97.5771 17.2666V29.3457H92.6553V18.668C92.6553 15.9797 91.4812 14.4269 89.1338 14.4268C86.7483 14.4268 85.082 16.0553 85.082 19.0088V29.3457H80.1592V10.4131H85.082V12.6846C86.4072 10.7917 88.1867 9.88293 90.4961 9.88281ZM110.534 13.9727C108.111 13.9727 106.293 15.4112 105.649 17.7588H115.077C114.698 15.4492 112.995 13.9728 110.534 13.9727ZM64.9004 0C66.5734 0 67.9297 1.35631 67.9297 3.0293C67.9297 4.70228 66.5734 6.05859 64.9004 6.05859C63.2276 6.05834 61.8721 4.70213 61.8721 3.0293C61.8721 1.35646 63.2276 0.000249808 64.9004 0Z" fill="white"/>
</svg>
