<svg width="40" height="40" viewBox="0 0 40 40" fill="none" xmlns="http://www.w3.org/2000/svg">
<path d="M20 26.6962C20.7261 26.6962 21.4226 26.4078 21.9361 25.8943C22.4495 25.3808 22.738 24.6844 22.738 23.9582C22.738 23.232 22.4495 22.5356 21.9361 22.0221C21.4226 21.5086 20.7261 21.2202 20 21.2202C19.2738 21.2202 18.5774 21.5086 18.0639 22.0221C17.5504 22.5356 17.2619 23.232 17.2619 23.9582C17.2619 24.6844 17.5504 25.3808 18.0639 25.8943C18.5774 26.4078 19.2738 26.6962 20 26.6962ZM28.2141 14.3751C28.9402 14.3751 29.6367 14.6636 30.1501 15.177C30.6636 15.6905 30.9521 16.387 30.9521 17.1131V30.8033C30.9521 31.5295 30.6636 32.2259 30.1501 32.7394C29.6367 33.2528 28.9402 33.5413 28.2141 33.5413H11.7859C11.0597 33.5413 10.3633 33.2528 9.8498 32.7394C9.33632 32.2259 9.04785 31.5295 9.04785 30.8033V17.1131C9.04785 16.387 9.33632 15.6905 9.8498 15.177C10.3633 14.6636 11.0597 14.3751 11.7859 14.3751H13.1549V11.6371C13.1549 9.82164 13.8761 8.08057 15.1598 6.79687C16.4435 5.51317 18.1845 4.79199 20 4.79199C20.8989 4.79199 21.789 4.96905 22.6195 5.31304C23.45 5.65704 24.2045 6.16124 24.8402 6.79687C25.4758 7.43249 25.98 8.18709 26.324 9.01757C26.668 9.84805 26.845 10.7382 26.845 11.6371V14.3751H28.2141ZM20 7.53002C18.9107 7.53002 17.8661 7.96273 17.0959 8.73295C16.3256 9.50317 15.8929 10.5478 15.8929 11.6371V14.3751H24.107V11.6371C24.107 10.5478 23.6743 9.50317 22.9041 8.73295C22.1339 7.96273 21.0892 7.53002 20 7.53002Z" fill="white"/>
</svg>
