<svg width="40" height="40" viewBox="0 0 40 40" fill="none" xmlns="http://www.w3.org/2000/svg">
<path d="M20.0003 20C18.167 20 16.5975 19.3472 15.292 18.0417C13.9864 16.7361 13.3337 15.1667 13.3337 13.3333C13.3337 11.5 13.9864 9.93055 15.292 8.62499C16.5975 7.31943 18.167 6.66666 20.0003 6.66666C21.8337 6.66666 23.4031 7.31943 24.7087 8.62499C26.0142 9.93055 26.667 11.5 26.667 13.3333C26.667 15.1667 26.0142 16.7361 24.7087 18.0417C23.4031 19.3472 21.8337 20 20.0003 20ZM6.66699 30V28.6667C6.66699 27.7222 6.91033 26.8544 7.39699 26.0633C7.88366 25.2722 8.52921 24.6678 9.33366 24.25C11.0559 23.3889 12.8059 22.7433 14.5837 22.3133C16.3614 21.8833 18.167 21.6678 20.0003 21.6667C21.8337 21.6655 23.6392 21.8811 25.417 22.3133C27.1948 22.7455 28.9448 23.3911 30.667 24.25C31.4725 24.6667 32.1187 25.2711 32.6053 26.0633C33.092 26.8555 33.3348 27.7233 33.3337 28.6667V30C33.3337 30.9167 33.0075 31.7017 32.3553 32.355C31.7031 33.0083 30.9181 33.3344 30.0003 33.3333H10.0003C9.08366 33.3333 8.29921 33.0072 7.64699 32.355C6.99477 31.7028 6.6681 30.9178 6.66699 30Z" fill="white"/>
</svg>
